<svg width="12" height="12" viewBox="0 0 12 12" fill="none" xmlns="http://www.w3.org/2000/svg">
<path d="M5.46655 0.637451C5.53425 0.454498 5.79338 0.454492 5.86108 0.637451L6.97241 3.64038C7.09498 3.97162 7.35602 4.23265 7.68726 4.35522L10.6902 5.46655C10.8731 5.53425 10.8731 5.79338 10.6902 5.86108L7.68726 6.97241C7.35602 7.09498 7.09498 7.35602 6.97241 7.68726L5.86108 10.6902C5.79339 10.8731 5.53425 10.8731 5.46655 10.6902L4.35522 7.68726C4.23265 7.35602 3.97162 7.09498 3.64038 6.97241L0.637451 5.86108C0.454498 5.79339 0.454492 5.53425 0.637451 5.46655L3.64038 4.35522C3.97162 4.23265 4.23265 3.97162 4.35522 3.64038L5.46655 0.637451Z" fill="white" stroke="black"/>
</svg>
